:SAMPLES-PER-SECOND 30
:FULLY-SPECIFIED
:DEGREES
583
root  -1.16748 6.06594 15.7911 -45.4789 -9.23508 1.85003
RightUpLeg  -89.7763 -4.63497 8.66034
RightLeg  91.8532 16.6052 -9.01252
RightFoot  30.6718 2.73379 -7.09265
RightToes  5.82077e-011 -3.18055e-015 -2.98177e-016
Spine  31.939 1.80766 4.35643
Spine1  25.0344 0.48047 0.690133
HEad  -4.53792 9.14195 1.31296
LeftShoulder1  -3.88251e-019 9.70628e-020 -3.87848e-018
LeftArm  2.10706 47.3025 -11.3947
LeftForeArm  -2.54038 0.133101 0.639712
LeftHand  -1.8271 -2.93473 26.5868
RightShoulder  3.5045 7.14744 19.1645
RightArm  4.04625 -35.3049 -1.44792
RightForeArm  -1.79564 4.58965 -5.96314
RightHand  0.206842 -6.51804 -22.8483
LeftUpLeg  -89.2208 9.25764 -0.435427
LeftLeg  88.5952 -14.1293 15.5737
LeftFoot  30.0607 -1.97259 5.20514
LeftToes  5.91571e-011 -3.44359e-011 -3.93244e-011
584
root  -1.16225 6.04792 15.7874 -45.6887 -9.19543 1.89214
RightUpLeg  -89.5822 -4.83435 8.71576
RightLeg  91.8123 16.6023 -9.03854
RightFoot  30.9279 2.8655 -7.37361
RightToes  5.82077e-011 -3.18055e-015 -2.98177e-016
Spine  31.8222 1.89092 4.82088
Spine1  24.2249 0.7126 0.636609
HEad  -4.71584 8.5883 1.2639
LeftShoulder1  -3.88251e-019 9.70628e-020 -3.87848e-018
LeftArm  -1.01176 37.1025 -17.2039
LeftForeArm  5.80119 0.0454054 0.211751
LeftHand  -2.03774 -4.67247 24.3678
RightShoulder  3.3431 7.31434 17.7619
RightArm  0.0184703 -26.7885 6.38846
RightForeArm  6.64894 2.56171 -5.79066
RightHand  -0.225292 -4.27489 -21.0962
LeftUpLeg  -89.0252 9.10608 -0.31353
LeftLeg  88.4854 -14.1386 16.1083
LeftFoot  30.2901 -1.99787 5.24009
LeftToes  5.91571e-011 -3.44359e-011 -3.93244e-011
585
root  -1.15638 6.02673 15.7788 -45.8762 -9.1852 1.89525
RightUpLeg  -89.3977 -4.95337 8.77042
RightLeg  91.8004 16.5855 -8.89244
RightFoot  31.0391 3.07243 -7.86185
RightToes  5.82077e-011 -3.18055e-015 -2.98177e-016
Spine  31.9183 1.88918 5.42886
Spine1  23.0138 1.00709 0.321344
HEad  -4.81049 7.84326 1.70552
LeftShoulder1  -3.88251e-019 9.70628e-020 -3.87848e-018
LeftArm  -2.69577 26.7815 -22.2259
LeftForeArm  11.0547 -0.382052 -0.367186
LeftHand  -1.96167 -5.44762 21.8082
RightShoulder  3.06756 7.33456 15.8572
RightArm  -2.79418 -18.4384 13.943
RightForeArm  13.9027 1.63467 -6.08839
RightHand  -0.634119 -1.83041 -19.9006
LeftUpLeg  -88.8408 9.01224 -0.178829
LeftLeg  88.412 -14.1427 16.442
LeftFoot  30.4787 -2.05353 5.35575
LeftToes  5.91571e-011 -3.44359e-011 -3.93244e-011
586
root  -1.16273 6.01421 15.7741 -46.0755 -8.99821 1.84323
RightUpLeg  -89.2274 -5.14528 8.66646
RightLeg  91.8816 16.5868 -8.79576
RightFoot  30.9229 3.16208 -8.10342
RightToes  5.82077e-011 -3.18055e-015 -2.98177e-016
Spine  32.2461 1.73071 6.0563
Spine1  21.7287 1.29971 -0.33364
HEad  -5.50279 6.81147 2.21119
LeftShoulder1  -3.88251e-019 9.70628e-020 -3.87848e-018
LeftArm  -2.9856 16.7986 -26.7769
LeftForeArm  13.6119 -2.80485 -0.870029
LeftHand  -1.83291 -5.64854 20.0623
RightShoulder  2.69835 7.13685 13.6474
RightArm  -3.9681 -11.1335 20.9695
RightForeArm  18.8188 3.30814 -6.7947
RightHand  -0.911788 0.315777 -18.1022
LeftUpLeg  -88.6011 8.86235 -0.229775
LeftLeg  88.3233 -14.1262 16.5509
LeftFoot  30.5867 -2.07316 5.39088
LeftToes  5.91571e-011 -3.44359e-011 -3.93244e-011
587
root  -1.18794 6.02369 15.7692 -46.2203 -8.60075 1.81397
RightUpLeg  -89.1004 -5.37514 8.34631
RightLeg  91.9868 16.6029 -8.81149
RightFoot  30.7983 3.1394 -8.07166
RightToes  5.82077e-011 -3.18055e-015 -2.98177e-016
Spine  32.5889 1.52608 6.39785
Spine1  20.6966 1.48948 -1.03532
HEad  -6.96169 5.67144 2.49773
LeftShoulder1  -3.88251e-019 9.70628e-020 -3.87848e-018
LeftArm  -1.98423 7.69075 -30.8322
LeftForeArm  14.1394 -7.89275 -1.11219
LeftHand  -1.73615 -5.79337 18.7872
RightShoulder  2.32454 6.85654 11.4549
RightArm  -3.46808 -4.94192 27.0921
RightForeArm  21.5548 7.98597 -7.81438
RightHand  -0.983692 1.87053 -15.4635
LeftUpLeg  -88.347 8.68156 -0.560973
LeftLeg  88.1876 -14.0863 16.5118
LeftFoot  30.6681 -2.06974 5.37195
LeftToes  5.91571e-011 -3.44359e-011 -3.93244e-011
588
root  -1.21879 6.0437 15.7692 -46.1373 -8.15893 1.88105
RightUpLeg  -89.1929 -5.49251 7.93275
RightLeg  92.0359 16.6119 -8.83344
RightFoot  30.9375 3.18212 -8.14963
RightToes  5.82077e-011 -3.18055e-015 -2.98177e-016
Spine  32.7503 1.46173 6.3934
Spine1  19.8079 1.57362 -1.44707
HEad  -8.68473 4.7655 2.82695
LeftShoulder1  -3.88251e-019 9.70628e-020 -3.87848e-018
LeftArm  0.206007 -0.363905 -34.4941
LeftForeArm  12.9992 -14.2019 -1.0245
LeftHand  -1.57076 -6.11755 16.5595
RightShoulder  1.98199 6.62845 9.31582
RightArm  -1.13557 0.461127 32.2069
RightForeArm  22.327 14.374 -9.22266
RightHand  -1.04025 3.3353 -13.6872
LeftUpLeg  -88.313 8.57146 -1.06909
LeftLeg  88.0383 -14.0418 16.4582
LeftFoot  30.8236 -2.08858 5.39879
LeftToes  5.91571e-011 -3.44359e-011 -3.93244e-011
589
root  -1.23753 6.04418 15.7715 -45.9687 -7.99978 1.99726
RightUpLeg  -89.3652 -5.33792 7.70274
RightLeg  91.9653 16.6045 -8.85729
RightFoot  31.3467 3.32952 -8.42959
RightToes  5.82077e-011 -3.18055e-015 -2.98177e-016
Spine  33.072 1.58659 6.40723
Spine1  18.6497 1.69914 -1.52254
HEad  -10.3789 4.23633 3.27915
LeftShoulder1  -3.88251e-019 9.70628e-020 -3.87848e-018
LeftArm  5.17825 -7.5156 -38.2305
LeftForeArm  10.2307 -20.5115 0.488544
LeftHand  -1.33608 -6.79175 13.3903
RightShoulder  1.62632 6.4058 6.98959
RightArm  4.06948 5.1859 36.54
RightForeArm  20.0127 20.8549 -11.7842
RightHand  -1.25332 5.09303 -13.7706
LeftUpLeg  -88.4468 8.67608 -1.38179
LeftLeg  87.9369 -14.0153 16.4788
LeftFoot  31.0685 -2.12586 5.4594
LeftToes  5.91571e-011 -3.44359e-011 -3.93244e-011
590
root  -1.2394 6.02718 15.7796 -45.7818 -8.09213 2.09905
RightUpLeg  -89.5723 -5.00824 7.64646
RightLeg  91.844 16.5951 -8.92945
RightFoot  31.767 3.43633 -8.60404
RightToes  5.82077e-011 -3.18055e-015 -2.98177e-016
Spine  33.6689 1.74579 6.58417
Spine1  17.1766 1.87805 -1.51401
HEad  -12.1528 3.93918 3.51003
LeftShoulder1  -3.88251e-019 9.70628e-020 -3.87848e-018
LeftArm  12.9129 -13.7608 -42.1541
LeftForeArm  7.50028 -26.1836 4.38888
LeftHand  -1.2499 -8.20663 11.2567
RightShoulder  1.24965 6.12363 4.48736
RightArm  9.12828 9.24017 40.2071
RightForeArm  17.4037 27.3358 -15.4176
RightHand  -1.57502 6.77296 -14.9471
LeftUpLeg  -88.6787 8.90669 -1.46383
LeftLeg  87.8896 -14.0077 16.5663
LeftFoot  31.3319 -2.1596 5.50815
LeftToes  5.91571e-011 -3.44359e-011 -3.93244e-011
591
root  -1.23501 6.024 15.7937 -45.559 -8.23431 2.11451
RightUpLeg  -89.7791 -4.70035 7.64256
RightLeg  91.7593 16.5927 -9.02382
RightFoot  31.9778 3.42219 -8.52771
RightToes  5.82077e-011 -3.18055e-015 -2.98177e-016
Spine  34.3267 1.75093 6.79925
Spine1  15.7886 1.98305 -1.62898
HEad  -13.8558 3.79819 3.48779
LeftShoulder1  -3.88251e-019 9.70628e-020 -3.87848e-018
LeftArm  15.9057 -19.21 -45.6311
LeftForeArm  11.1185 -31.3439 7.43334
LeftHand  -1.58804 -10.3838 12.1975
RightShoulder  0.913972 5.84547 2.1896
RightArm  11.7413 12.8792 43.2948
RightForeArm  16.6361 34.1008 -19.3995
RightHand  -2.00578 8.16259 -17.0489
LeftUpLeg  -88.9328 9.09679 -1.45276
LeftLeg  87.8914 -14.0088 16.5748
LeftFoot  31.5368 -2.20271 5.58659
LeftToes  5.91571e-011 -3.44359e-011 -3.93244e-011
592
root  -1.23171 6.04651 15.8151 -45.2608 -8.31799 2.0346
RightUpLeg  -90.0041 -4.52391 7.6479
RightLeg  91.7534 16.5939 -9.04706
RightFoot  31.991 3.36733 -8.39386
RightToes  5.82077e-011 -3.18055e-015 -2.98177e-016
Spine  34.7401 1.61324 6.93987
Spine1  14.9129 1.95106 -1.79921
HEad  -15.1595 3.9026 3.62614
LeftShoulder1  -3.88251e-019 9.70628e-020 -3.87848e-018
LeftArm  16.5193 -24.2354 -48.6563
LeftForeArm  15.2561 -35.3383 8.68324
LeftHand  -2.46785 -12.5487 16.4631
RightShoulder  0.643478 5.59606 0.283892
RightArm  13.2927 16.4585 45.8915
RightForeArm  15.6383 40.3249 -23.8582
RightHand  -2.71818 9.40723 -21.0377
LeftUpLeg  -89.2028 9.17103 -1.44547
LeftLeg  87.9347 -14.0124 16.4406
LeftFoot  31.6733 -2.2779 5.75102
LeftToes  5.91571e-011 -3.44359e-011 -3.93244e-011
593
root  -1.22571 6.07198 15.8391 -44.9538 -8.39265 1.91536
RightUpLeg  -90.2283 -4.45152 7.71093
RightLeg  91.7791 16.5952 -9.01173
RightFoot  31.9595 3.3436 -8.34324
RightToes  5.82077e-011 -3.18055e-015 -2.98177e-016
Spine  34.8653 1.4828 7.07322
Spine1  14.606 1.87527 -1.86061
HEad  -16.2367 4.2011 4.01314
LeftShoulder1  -3.88251e-019 9.70628e-020 -3.87848e-018
LeftArm  18.273 -28.9429 -51.5698
LeftForeArm  15.6668 -37.1028 9.27651
LeftHand  -3.68992 -14.127 22.3791
RightShoulder  0.388174 5.24674 -1.49545
RightArm  14.3932 20.1094 47.9475
RightForeArm  13.4915 45.2227 -28.1119
RightHand  -3.77054 10.5194 -26.9264
LeftUpLeg  -89.4647 9.16657 -1.41634
LeftLeg  87.9799 -14.0148 16.2835
LeftFoot  31.799 -2.37741 5.97454
LeftToes  5.91571e-011 -3.44359e-011 -3.93244e-011
